<svg xmlns="http://www.w3.org/2000/svg" viewBox="0 0 256 256" role="img" aria-label="OASIS favicon">
  <defs>
    <linearGradient id="bg" x1="0" y1="0" x2="1" y2="1">
      <stop offset="0%" stop-color="#0f172a"/>
      <stop offset="100%" stop-color="#1d4ed8"/>
    </linearGradient>
    <linearGradient id="accent" x1="0" y1="0" x2="1" y2="1">
      <stop offset="0%" stop-color="#67e8f9"/>
      <stop offset="100%" stop-color="#22c55e"/>
    </linearGradient>
  </defs>

  <rect x="8" y="8" width="240" height="240" rx="56" fill="url(#bg)"/>

  <g stroke="#e2e8f0" stroke-width="10" stroke-linecap="round" stroke-linejoin="round" fill="none">
    <path d="M97 172v-50c0-8 6-14 14-14s14 6 14 14V84c0-8 6-14 14-14s14 6 14 14v44-14c0-8 6-14 14-14s14 6 14 14v16-8c0-8 6-14 14-14s14 6 14 14v36c0 34-24 56-62 56h-18c-34 0-58-18-58-50v-26c0-8 6-14 14-14s14 6 14 14v22"/>
  </g>

  <g fill="url(#accent)">
    <circle cx="76" cy="72" r="10"/>
    <circle cx="104" cy="52" r="8"/>
    <circle cx="182" cy="58" r="9"/>
    <circle cx="202" cy="84" r="7"/>
    <circle cx="64" cy="104" r="7"/>
  </g>

  <g stroke="#67e8f9" stroke-width="4" opacity="0.8">
    <line x1="76" y1="72" x2="104" y2="52"/>
    <line x1="104" y1="52" x2="182" y2="58"/>
    <line x1="182" y1="58" x2="202" y2="84"/>
    <line x1="76" y1="72" x2="64" y2="104"/>
  </g>
</svg>